<?xml version="1.0" encoding="UTF-8" standalone="no"?>
<!DOCTYPE svg PUBLIC "-//W3C//DTD SVG 1.1//EN" "http://www.w3.org/Graphics/SVG/1.1/DTD/svg11.dtd">
<svg width="100%" height="100%" viewBox="0 0 1094 142" version="1.1" xmlns="http://www.w3.org/2000/svg" xmlns:xlink="http://www.w3.org/1999/xlink" xml:space="preserve" xmlns:serif="http://www.serif.com/" style="fill-rule:evenodd;clip-rule:evenodd;stroke-linejoin:round;stroke-miterlimit:1.5;">
    <rect id="light" x="0" y="0" width="1093.91" height="141.925" style="fill:none;"/>
    <g id="light1" serif:id="light">
        <g transform="matrix(0.701369,0,0,0.701369,11.1835,-78.3812)">
            <g transform="matrix(1.43619,0,0,1.43619,176.757,234.487)">
                <path d="M0,-46.972C-0.01,-47.031 -0.023,-47.086 -0.042,-47.137C-0.116,-47.333 -0.235,-47.47 -0.316,-47.549C-0.339,-47.573 -0.361,-47.594 -0.386,-47.619C-0.387,-47.62 -0.389,-47.622 -0.39,-47.623C-1.217,-48.441 -2.833,-50.039 -2.944,-50.149C-3.517,-50.705 -3.682,-51.455 -3.857,-52.248C-4.02,-52.989 -4.189,-53.755 -4.694,-54.455C-6.708,-57.246 -10.599,-59.05 -11.054,-59.254L-14.448,-70.708L-14.645,-70.667C-14.639,-70.628 -14.18,-66.67 -17.066,-64.642C-18.935,-63.328 -20.101,-61.99 -20.124,-59.403C-20.875,-59.214 -26.843,-57.582 -31.494,-52.356C-31.952,-52.542 -34.624,-53.529 -38.129,-52.727C-40.551,-52.172 -42.753,-50.864 -45.542,-49.208C-50.118,-46.49 -56.385,-42.767 -68.379,-39.253C-72.045,-38.178 -75.637,-37.47 -78.807,-36.847C-85.445,-35.539 -90.696,-34.506 -93.819,-31.026C-94.357,-31.175 -98.164,-32.084 -100.033,-28.703C-100.494,-27.868 -100.914,-26.917 -101.358,-25.91C-102.842,-22.544 -104.376,-19.063 -107.764,-19.063C-109.444,-19.063 -111.144,-17.902 -111.144,-15.683C-111.144,-14.829 -110.815,-14.069 -110.244,-13.482C-109.653,-12.873 -108.803,-12.448 -107.778,-12.304C-107.704,-12.294 -107.632,-12.294 -107.558,-12.285C-107.521,-12.281 -107.484,-12.28 -107.447,-12.276C-107.417,-12.273 -107.387,-12.271 -107.357,-12.269C-102.443,-11.831 -98.811,-15.79 -98.05,-17.741C-98.182,-16.059 -99.259,-9.613 -107.97,-9.909C-108,-9.91 -108.028,-9.909 -108.058,-9.911C-108.078,-9.912 -108.096,-9.911 -108.117,-9.912C-108.137,-9.915 -108.155,-9.921 -108.175,-9.925C-109.342,-6.101 -111.719,-1.077 -116.554,2.889C-116.723,3.039 -116.892,3.176 -117.057,3.309C-117.752,3.872 -118.409,4.405 -118.77,5.679L-122.924,20.088C-122.944,20.15 -123.399,21.643 -122.614,22.713C-122.115,23.391 -121.234,23.736 -119.995,23.736L-114.245,23.736L-114.219,23.676C-113.712,22.532 -113.71,21.476 -114.214,20.703C-114.792,19.815 -116.008,19.336 -117.735,19.315C-117.578,18.537 -116.572,14.061 -113.574,11.133C-112.077,9.67 -109.482,8.192 -106.477,6.48C-106.063,6.244 -105.639,6.003 -105.207,5.755L-104.637,7.756L-104.528,7.701C-104.44,7.657 -95.751,3.227 -90.587,-5.121C-90.454,-4.841 -90.323,-4.553 -90.194,-4.247C-86.921,3.566 -90.57,9.077 -91.335,10.103C-92.324,11.43 -91.506,12.316 -91.497,12.326L-81.767,22.312C-81.716,22.37 -80.506,23.736 -79.301,23.736L-73.551,23.736L-73.525,23.676C-73.018,22.532 -73.016,21.476 -73.52,20.703C-74.109,19.797 -75.36,19.318 -77.139,19.314C-77.356,19.208 -79.452,18.1 -81.601,14.263C-82.846,12.038 -81.529,10.509 -79.535,8.193C-78.506,6.999 -77.31,5.599 -76.21,3.812L-74.466,5.05L-74.411,4.953C-74.372,4.883 -70.56,-2.091 -72.829,-11.682C-70.292,-13.862 -65.9,-14.354 -60.817,-14.923C-58.339,-15.2 -55.735,-15.494 -53.14,-16.004C-52.242,-11.566 -49.685,1.074 -48.358,7.544C-48.125,8.678 -47.259,10.211 -45.743,10.628L-56.26,11.571C-59.082,11.832 -60.568,12.025 -60.849,13.253C-61.255,15.03 -61.81,15.506 -62.346,15.967C-62.914,16.454 -63.452,16.915 -63.684,18.815C-64.692,19.261 -65.305,19.388 -67.395,19.595C-68.622,19.715 -69.608,20.453 -70.247,21.727C-70.725,22.681 -70.84,23.584 -70.844,23.622L-70.858,23.736L-2.862,23.736L-2.871,23.626C-2.873,23.603 -3.09,21.318 -5.226,20.98C-7.756,20.581 -8.711,19.961 -8.853,19.859C-9.214,18.988 -9.299,18.269 -9.44,16.867L-9.451,16.754C-9.503,16.215 -9.575,15.476 -10.009,15.074C-10.45,14.667 -11.033,14.587 -11.65,14.501C-11.743,14.489 -11.838,14.475 -11.935,14.46C-12.89,14.316 -13.632,14.097 -14.029,13.841C-14.166,13.476 -14.291,13.129 -14.409,12.801C-15.623,9.438 -16.121,8.041 -20.62,8.373L-23.168,8.602C-22.818,7.48 -22.917,6.483 -23.46,5.786C-24.117,4.944 -25.382,4.569 -27.125,4.706C-30.604,-7.31 -27.792,-17.372 -26.438,-22.213C-26.343,-22.556 -26.254,-22.874 -26.174,-23.168L-24.696,-21.751L-24.631,-21.856C-20.716,-28.041 -20.477,-34.014 -20.484,-35.513C-18.961,-33.376 -16.09,-33.646 -16.062,-33.649L-15.956,-33.66L-16.401,-36.508C-14.861,-34.489 -12.086,-34.749 -12.058,-34.753L-11.952,-34.764L-12.329,-37.175C-12.586,-38.795 -12.174,-40.074 -11.2,-40.685C-10.229,-41.294 -8.857,-41.107 -7.529,-40.184C-5.664,-38.885 -4.084,-39.924 -3.644,-40.273C-2.521,-41.164 -2.555,-42.689 -2.576,-43.01C-1.042,-44.155 -0.355,-45.58 -0.068,-46.398C0.02,-46.62 0.028,-46.809 0,-46.972M-16.775,-40.111C-18.625,-40.98 -19.218,-43.113 -19.218,-43.113C-20.373,-41.874 -20.759,-39.896 -20.759,-39.896C-23.228,-42.297 -22.794,-47.024 -20.121,-49.031C-15.713,-52.34 -9.423,-49.8 -7.322,-44.086C-12.968,-47.797 -17.014,-44.005 -16.775,-40.111M-8.639,-51.291C-9.698,-52.363 -9.232,-53.534 -9.232,-53.534C-8.229,-52.617 -7.608,-52.89 -6.84,-52.25C-5.593,-51.211 -6.013,-49.908 -6.013,-49.908C-7.03,-50.831 -7.677,-50.317 -8.639,-51.291M-39.255,10.046C-38.905,8.923 -39.004,7.926 -39.548,7.229C-40.202,6.391 -41.464,6.019 -43.198,6.149C-43.64,2.091 -42.812,-7.103 -40.967,-14.232L-32.264,6.119L-32.264,6.121C-31.804,7.147 -31.095,8.744 -29.644,9.183L-39.255,10.046ZM-83.512,-11.525C-83.512,-11.525 -85.585,-9.975 -86.81,-7.471C-86.81,-7.471 -87.023,-8.353 -87.108,-9.735C-87.112,-9.793 -87.115,-9.853 -87.117,-9.912C-87.121,-9.975 -87.123,-10.04 -87.126,-10.105C-87.149,-10.671 -87.147,-11.305 -87.104,-11.989C-87.101,-12.034 -87.099,-12.077 -87.096,-12.122C-87.093,-12.167 -87.091,-12.21 -87.088,-12.255C-86.725,-16.83 -84.382,-23.371 -74.467,-25.733C-74.467,-25.733 -77.575,-22.129 -76.734,-13.927C-76.032,-7.087 -75.415,0.862 -82.536,4.385C-82.536,4.385 -79.074,-2.152 -83.512,-11.525M-27.298,-28.85L-29.167,-24.674C-29.324,-24.323 -31.791,-18.674 -32.123,-10.014C-34.572,-15.246 -34.961,-19.197 -34.353,-22.448C-35.961,-21.787 -37.841,-19.2 -37.841,-19.2C-38.078,-21.157 -37.776,-24.898 -33.16,-29.627C-27.565,-35.357 -27.298,-40.6 -27.298,-40.6C-27.298,-40.6 -24.355,-36.051 -27.298,-28.85M-17.216,16.036C-16.177,16.499 -13.765,16.036 -13.885,17.948C-14.005,19.88 -12.66,20.407 -12.66,20.407L-35.897,20.407C-35.897,20.407 -35.577,19.587 -33.632,18.963C-30.575,17.981 -30.626,16.082 -30.626,16.082C-35.519,15.102 -44.322,15.669 -44.322,15.669C-44.322,15.669 -43.963,14.425 -41.499,14.177C-41.465,14.173 -21.628,12.347 -21.007,12.302C-20.628,12.28 -19.589,12.116 -19.114,13.042C-18.381,14.469 -18.313,15.547 -17.216,16.036" style="fill:rgb(163,32,54);fill-rule:nonzero;"/>
            </g>
            <g transform="matrix(1.43619,0,0,1.43619,191.457,181.34)">
                <path d="M0,1.226C0,-8.815 7.406,-15.857 16.584,-15.857C19.901,-15.857 22.628,-15.085 24.763,-13.995L26.762,-16.13L27.217,-16.13L27.217,-5.089L26.626,-5.089C24.127,-11.496 20.855,-14.994 15.994,-14.994C10.587,-14.994 5.997,-10.133 5.997,0.727C5.997,11.359 11.678,15.63 17.175,15.63C22.4,15.63 26.036,12.359 28.035,7.997L28.807,8.405C26.853,12.858 22.855,17.356 15.539,17.356C6.225,17.356 0,11.041 0,1.226" style="fill:rgb(118,119,123);fill-rule:nonzero;"/>
            </g>
            <g transform="matrix(1.43619,0,0,1.43619,238.435,181.992)">
                <path d="M0,11.359C0,9.588 0.818,7.815 2.726,6.77C6.088,4.907 11.405,4.635 12.45,4.135L12.45,0.864C12.45,-2.544 11.45,-4.18 8.77,-4.18C7.225,-4.18 5.816,-3.681 4.998,-2.862C5.771,-2.136 6.225,-1.318 6.225,-0.409C6.225,1.181 5.271,2.272 3.499,2.272C1.909,2.272 0.863,1.09 0.863,-0.409C0.863,-3.09 4.18,-5.044 9.315,-5.044C14.449,-5.044 17.175,-3.044 17.175,1.636L17.175,12.222C17.175,14.449 17.993,15.403 20.628,14.313L20.81,14.767C19.22,15.767 18.039,16.312 16.449,16.312C13.904,16.312 12.95,15.267 12.677,12.813L12.495,12.813C10.768,14.813 8.633,16.403 5.816,16.403C1.772,16.403 0,13.904 0,11.359M12.45,11.768L12.45,4.998C6.407,6.18 5.089,7.497 5.089,10.587C5.089,12.768 6.134,14.313 8.451,14.313C10.087,14.313 11.541,13.041 12.45,11.768" style="fill:rgb(118,119,123);fill-rule:nonzero;"/>
            </g>
            <g transform="matrix(1.43619,0,0,1.43619,270.146,159.153)">
                <path d="M0,31.488C2.635,31.442 3.271,31.124 3.271,29.761L3.271,2.59C3.271,1.045 2.817,0.364 -0.363,0.273L-0.363,-0.273L8.042,-0.545L8.042,29.761C8.042,31.124 8.633,31.442 11.269,31.488L11.269,32.033L0,32.033L0,31.488Z" style="fill:rgb(118,119,123);fill-rule:nonzero;"/>
            </g>
            <g transform="matrix(1.43619,0,0,1.43619,290.111,161.371)">
                <path d="M0,29.943C2.636,29.897 3.317,29.579 3.317,28.216L3.317,12.586C3.317,11.223 2.636,10.36 0,10.314L0,9.769L8.087,9.451L8.087,28.216C8.087,29.579 8.587,29.897 11.404,29.943L11.404,30.488L0,30.488L0,29.943ZM2.499,2.59C2.499,0.727 3.68,-0.545 5.453,-0.545C7.27,-0.545 8.451,0.636 8.451,2.453C8.451,4.271 7.27,5.543 5.453,5.543C3.68,5.543 2.499,4.407 2.499,2.59" style="fill:rgb(118,119,123);fill-rule:nonzero;"/>
            </g>
            <g transform="matrix(1.43619,0,0,1.43619,310.272,158.76)">
                <path d="M0,31.761C2.59,31.715 3.226,31.397 3.226,30.034L3.226,12.995L-0.681,12.995L-0.681,12.404L3.226,11.405L3.226,9.678C3.226,5.862 4.135,3.363 5.771,1.727C7.316,0.182 9.315,-0.545 11.587,-0.545C15.54,-0.545 17.448,1.182 17.448,3.136C17.448,4.771 16.494,5.862 14.858,5.862C13.45,5.862 12.087,5.09 12.087,2.954C12.087,2.363 12.496,1.363 12.813,0.909C12.404,0.546 11.814,0.273 11.133,0.273C10.36,0.273 9.815,0.5 9.27,1.045C8.451,1.863 7.997,3.408 7.997,6.953L7.997,11.541L13.767,11.541L13.767,12.95L7.997,12.95L7.997,30.034C7.997,31.397 8.997,31.67 12.313,31.761L12.313,32.306L0,32.306L0,31.761Z" style="fill:rgb(118,119,123);fill-rule:nonzero;"/>
            </g>
            <g transform="matrix(1.43619,0,0,1.43619,332.587,190.019)">
                <path d="M0,0.136C0,-6.316 4.816,-10.768 10.632,-10.768C16.629,-10.768 21.219,-6.497 21.219,-0.046C21.219,6.452 16.403,10.904 10.632,10.904C4.544,10.904 0,6.633 0,0.136M15.903,0.045C15.903,-7.043 13.858,-9.905 10.405,-9.905C6.997,-9.905 5.271,-7.043 5.271,0.045C5.271,7.133 7.361,10.041 10.814,10.041C14.177,10.041 15.903,7.133 15.903,0.045" style="fill:rgb(118,119,123);fill-rule:nonzero;"/>
            </g>
            <g transform="matrix(1.43619,0,0,1.43619,367.299,175.466)">
                <path d="M0,20.129C2.59,20.083 3.226,19.765 3.226,18.402L3.226,2.772C3.226,1.409 2.59,0.546 0,0.5L0,-0.045L7.906,-0.363L7.906,4.226C9.496,1.272 11.723,-0.545 14.04,-0.545C16.539,-0.545 17.675,1 17.675,2.772C17.675,4.499 16.539,5.725 14.903,5.725C13.222,5.725 12.041,4.544 12.041,2.908C12.041,2.454 12.177,1.863 12.313,1.5C10.541,1.727 9.315,3.045 7.997,5.271L7.997,18.402C7.997,19.765 8.86,20.038 11.95,20.129L11.95,20.674L0,20.674L0,20.129Z" style="fill:rgb(118,119,123);fill-rule:nonzero;"/>
            </g>
            <g transform="matrix(1.43619,0,0,1.43619,395.093,175.531)">
                <path d="M0,20.084C2.59,20.038 3.226,19.72 3.226,18.357L3.226,2.727C3.226,1.364 2.59,0.501 0,0.455L0,-0.09L7.906,-0.408L7.906,4.499C9.951,1.273 12.722,-0.545 15.767,-0.545C19.356,-0.545 21.355,1.637 21.355,5.817L21.355,18.357C21.355,19.72 21.946,20.038 24.582,20.084L24.582,20.629L13.858,20.629L13.858,20.084C15.949,20.038 16.584,19.72 16.584,18.357L16.584,6.68C16.584,3.409 15.63,1.773 12.904,1.773C10.95,1.773 9.224,3.272 7.997,5.589L7.997,18.357C7.997,19.72 8.633,20.038 10.678,20.084L10.678,20.629L0,20.629L0,20.084Z" style="fill:rgb(118,119,123);fill-rule:nonzero;"/>
            </g>
            <g transform="matrix(1.43619,0,0,1.43619,433.198,161.371)">
                <path d="M0,29.943C2.635,29.897 3.317,29.579 3.317,28.216L3.317,12.586C3.317,11.223 2.635,10.36 0,10.314L0,9.769L8.087,9.451L8.087,28.216C8.087,29.579 8.587,29.897 11.404,29.943L11.404,30.488L0,30.488L0,29.943ZM2.499,2.59C2.499,0.727 3.68,-0.545 5.453,-0.545C7.27,-0.545 8.451,0.636 8.451,2.453C8.451,4.271 7.27,5.543 5.453,5.543C3.68,5.543 2.499,4.407 2.499,2.59" style="fill:rgb(118,119,123);fill-rule:nonzero;"/>
            </g>
            <g transform="matrix(1.43619,0,0,1.43619,453.946,181.992)">
                <path d="M0,11.359C0,9.588 0.818,7.815 2.726,6.77C6.089,4.907 11.405,4.635 12.45,4.135L12.45,0.864C12.45,-2.544 11.45,-4.18 8.77,-4.18C7.225,-4.18 5.816,-3.681 4.999,-2.862C5.771,-2.136 6.225,-1.318 6.225,-0.409C6.225,1.181 5.271,2.272 3.499,2.272C1.909,2.272 0.863,1.09 0.863,-0.409C0.863,-3.09 4.18,-5.044 9.315,-5.044C14.449,-5.044 17.175,-3.044 17.175,1.636L17.175,12.222C17.175,14.449 17.994,15.403 20.628,14.313L20.811,14.767C19.22,15.767 18.039,16.312 16.449,16.312C13.904,16.312 12.95,15.267 12.677,12.813L12.495,12.813C10.769,14.813 8.633,16.403 5.816,16.403C1.772,16.403 0,13.904 0,11.359M12.45,11.768L12.45,4.998C6.407,6.18 5.089,7.497 5.089,10.587C5.089,12.768 6.134,14.313 8.452,14.313C10.087,14.313 11.541,13.041 12.45,11.768" style="fill:rgb(118,119,123);fill-rule:nonzero;"/>
            </g>
            <g transform="matrix(1.43619,0,0,1.43619,493.375,174.684)">
                <path d="M0,10.678L0.637,10.678C3.363,16.721 6.588,20.947 11.45,20.947C15.903,20.947 18.129,17.948 18.129,15.085C18.129,11.087 15.403,9.496 9.769,7.543C5.225,5.953 0.5,4.498 0.5,-1.363C0.5,-7.361 5.089,-11.087 11.223,-11.087C13.904,-11.087 16.403,-10.314 18.039,-9.542L19.674,-11.359L20.22,-11.359L20.22,-1.226L19.583,-1.226C17.084,-7.225 14.176,-10.223 10.496,-10.223C7.407,-10.223 4.589,-8.224 4.589,-4.634C4.589,-0.727 7.542,0.727 12.768,2.454C17.084,3.908 21.719,5.498 21.719,11.404C21.719,16.403 18.766,21.855 10.905,21.855C8.315,21.855 5.271,20.947 3.271,19.811L0.546,22.037L0,22.037L0,10.678Z" style="fill:rgb(118,119,123);fill-rule:nonzero;"/>
            </g>
            <g transform="matrix(1.43619,0,0,1.43619,534.678,173.053)">
                <path d="M0,16.766L0,3.044L-4.225,3.044L-4.225,2.453L0,1.454L0,-4.317L4.771,-6.043L4.771,1.59L11.223,1.59L11.223,2.999L4.771,2.999L4.771,17.174C4.771,19.901 5.543,20.946 7.406,20.946C8.724,20.946 10.041,20.037 11.223,17.902L11.768,18.265C10.314,21.219 8.315,22.809 5.453,22.809C1.908,22.809 0,20.946 0,16.766" style="fill:rgb(118,119,123);fill-rule:nonzero;"/>
            </g>
            <g transform="matrix(1.43619,0,0,1.43619,554.708,181.992)">
                <path d="M0,11.359C0,9.588 0.818,7.815 2.726,6.77C6.088,4.907 11.405,4.635 12.45,4.135L12.45,0.864C12.45,-2.544 11.45,-4.18 8.77,-4.18C7.225,-4.18 5.816,-3.681 4.998,-2.862C5.771,-2.136 6.225,-1.318 6.225,-0.409C6.225,1.181 5.271,2.272 3.499,2.272C1.909,2.272 0.863,1.09 0.863,-0.409C0.863,-3.09 4.18,-5.044 9.315,-5.044C14.449,-5.044 17.175,-3.044 17.175,1.636L17.175,12.222C17.175,14.449 17.993,15.403 20.628,14.313L20.81,14.767C19.22,15.767 18.038,16.312 16.449,16.312C13.904,16.312 12.95,15.267 12.677,12.813L12.495,12.813C10.768,14.813 8.633,16.403 5.816,16.403C1.772,16.403 0,13.904 0,11.359M12.45,11.768L12.45,4.998C6.407,6.18 5.089,7.497 5.089,10.587C5.089,12.768 6.134,14.313 8.451,14.313C10.087,14.313 11.541,13.041 12.45,11.768" style="fill:rgb(118,119,123);fill-rule:nonzero;"/>
            </g>
            <g transform="matrix(1.43619,0,0,1.43619,591.183,173.053)">
                <path d="M0,16.766L0,3.044L-4.225,3.044L-4.225,2.453L0,1.454L0,-4.317L4.771,-6.043L4.771,1.59L11.223,1.59L11.223,2.999L4.771,2.999L4.771,17.174C4.771,19.901 5.543,20.946 7.406,20.946C8.724,20.946 10.041,20.037 11.223,17.902L11.768,18.265C10.314,21.219 8.315,22.809 5.453,22.809C1.908,22.809 0,20.946 0,16.766" style="fill:rgb(118,119,123);fill-rule:nonzero;"/>
            </g>
            <g transform="matrix(1.43619,0,0,1.43619,610.691,189.759)">
                <path d="M0,0.499C0,-5.998 4.725,-10.587 10.269,-10.587C16.357,-10.587 19.492,-6.316 19.129,-0.909L5.18,-0.909L5.18,0.226C5.18,5.497 7.542,9.269 12.313,9.269C15.175,9.269 16.857,7.815 18.72,5.407L19.22,5.77C17.402,8.724 14.812,11.086 10.269,11.086C4.18,11.086 0,6.77 0,0.499M5.225,-1.727L14.04,-1.727C14.494,-6.725 13.358,-9.724 9.95,-9.724C7.224,-9.724 5.543,-6.953 5.225,-1.727" style="fill:rgb(118,119,123);fill-rule:nonzero;"/>
            </g>
            <g transform="matrix(1.43619,0,0,1.43619,197.11,237.45)">
                <path d="M0,12.45L0,-6.453C0,-8.27 -1.046,-9.315 -4.953,-9.452L-4.953,-9.997L9.905,-9.997L9.905,-9.452C6.043,-9.315 5.316,-8.361 5.316,-6.453L5.316,11.905C5.316,18.766 9.406,20.902 14.541,20.902C16.812,20.902 18.948,20.22 20.357,18.812C21.947,17.221 22.901,14.904 22.901,11.45L22.901,-2.454C22.901,-6.907 21.402,-8.816 16.812,-9.452L16.812,-9.997L29.354,-9.997L29.354,-9.452C25.083,-8.725 24.038,-6.907 24.038,-2.454L24.038,11.814C24.038,18.176 20.448,22.447 12.359,22.447C4.498,22.447 0,19.039 0,12.45" style="fill:rgb(118,119,123);fill-rule:nonzero;"/>
            </g>
            <g transform="matrix(1.43619,0,0,1.43619,235.934,238.95)">
                <path d="M0,20.085C2.59,20.039 3.226,19.721 3.226,18.358L3.226,2.727C3.226,1.364 2.59,0.5 0,0.454L0,-0.09L7.907,-0.409L7.907,4.498C9.951,1.273 12.723,-0.545 15.768,-0.545C19.357,-0.545 21.357,1.636 21.357,5.817L21.357,18.358C21.357,19.721 21.948,20.039 24.584,20.085L24.584,20.63L13.859,20.63L13.859,20.085C15.95,20.039 16.586,19.721 16.586,18.358L16.586,6.68C16.586,3.408 15.632,1.773 12.905,1.773C10.951,1.773 9.224,3.272 7.998,5.589L7.998,18.358C7.998,19.721 8.634,20.039 10.679,20.085L10.679,20.63L0,20.63L0,20.085Z" style="fill:rgb(118,119,123);fill-rule:nonzero;"/>
            </g>
            <g transform="matrix(1.43619,0,0,1.43619,272.019,224.788)">
                <path d="M0,29.946C2.636,29.9 3.317,29.582 3.317,28.219L3.317,12.588C3.317,11.225 2.636,10.361 0,10.315L0,9.771L8.088,9.452L8.088,28.219C8.088,29.582 8.588,29.9 11.405,29.946L11.405,30.491L0,30.491L0,29.946ZM2.499,2.591C2.499,0.728 3.681,-0.545 5.453,-0.545C7.271,-0.545 8.452,0.637 8.452,2.454C8.452,4.272 7.271,5.544 5.453,5.544C3.681,5.544 2.499,4.408 2.499,2.591" style="fill:rgb(118,119,123);fill-rule:nonzero;"/>
            </g>
            <g transform="matrix(1.43619,0,0,1.43619,292.445,263.359)">
                <path d="M0,-13.36C-0.954,-15.723 -1.772,-16.495 -3.953,-16.768L-3.953,-17.313L7.27,-17.313L7.27,-16.768C5.316,-16.586 4.589,-16.086 4.589,-15.178C4.589,-14.814 4.681,-14.45 4.862,-13.905L9.724,-1.137L9.906,-1.137L14.041,-11.588C14.495,-12.769 14.813,-13.768 14.813,-14.405C14.813,-15.813 13.768,-16.45 11.542,-16.768L11.542,-17.313L19.811,-17.313L19.811,-16.768C18.221,-16.541 16.767,-15.268 15.767,-12.86L8.724,3.953L6.998,3.953L0,-13.36Z" style="fill:rgb(118,119,123);fill-rule:nonzero;"/>
            </g>
            <g transform="matrix(1.43619,0,0,1.43619,318.088,253.178)">
                <path d="M0,0.499C0,-5.999 4.726,-10.588 10.27,-10.588C16.358,-10.588 19.494,-6.316 19.131,-0.909L5.18,-0.909L5.18,0.227C5.18,5.498 7.543,9.269 12.314,9.269C15.177,9.269 16.858,7.815 18.721,5.407L19.221,5.77C17.403,8.724 14.813,11.087 10.27,11.087C4.181,11.087 0,6.77 0,0.499M5.226,-1.727L14.041,-1.727C14.495,-6.726 13.359,-9.724 9.951,-9.724C7.225,-9.724 5.544,-6.953 5.226,-1.727" style="fill:rgb(118,119,123);fill-rule:nonzero;"/>
            </g>
            <g transform="matrix(1.43619,0,0,1.43619,347.712,238.886)">
                <path d="M0,20.13C2.59,20.084 3.226,19.766 3.226,18.403L3.226,2.772C3.226,1.409 2.59,0.545 0,0.499L0,-0.045L7.907,-0.364L7.907,4.226C9.497,1.272 11.724,-0.545 14.041,-0.545C16.541,-0.545 17.677,0.999 17.677,2.772C17.677,4.498 16.541,5.725 14.904,5.725C13.224,5.725 12.042,4.543 12.042,2.908C12.042,2.453 12.179,1.863 12.314,1.499C10.542,1.726 9.315,3.044 7.998,5.271L7.998,18.403C7.998,19.766 8.861,20.039 11.951,20.13L11.951,20.675L0,20.675L0,20.13Z" style="fill:rgb(118,119,123);fill-rule:nonzero;"/>
            </g>
            <g transform="matrix(1.43619,0,0,1.43619,374.597,248.805)">
                <path d="M0,6.589L0.637,6.589C3.545,11.633 5.271,13.269 8.543,13.269C11.088,13.269 12.451,11.542 12.451,9.77C12.451,7.68 11.179,6.544 6.68,5.272C2.045,3.953 0.091,2.499 0.091,-0.863C0.091,-4.771 3.09,-7.543 7.77,-7.543C9.769,-7.543 11.679,-6.861 12.905,-6.134L14.041,-7.543L14.541,-7.543L14.541,-0.772L13.905,-0.772C11.269,-5.044 9.952,-6.679 7.18,-6.679C5.09,-6.679 3.499,-5.271 3.499,-3.181C3.499,-1.226 5.316,-0.227 8.815,0.682C13.45,1.954 15.677,3.59 15.677,7.134C15.677,10.951 12.951,14.132 7.998,14.132C6.316,14.132 3.362,13.405 2,12.496L0.5,14.132L0,14.132L0,6.589Z" style="fill:rgb(118,119,123);fill-rule:nonzero;"/>
            </g>
            <g transform="matrix(1.43619,0,0,1.43619,399.784,224.788)">
                <path d="M0,29.946C2.636,29.9 3.318,29.582 3.318,28.219L3.318,12.588C3.318,11.225 2.636,10.361 0,10.315L0,9.771L8.088,9.452L8.088,28.219C8.088,29.582 8.588,29.9 11.405,29.946L11.405,30.491L0,30.491L0,29.946ZM2.499,2.591C2.499,0.728 3.681,-0.545 5.453,-0.545C7.271,-0.545 8.452,0.637 8.452,2.454C8.452,4.272 7.271,5.544 5.453,5.544C3.681,5.544 2.499,4.408 2.499,2.591" style="fill:rgb(118,119,123);fill-rule:nonzero;"/>
            </g>
            <g transform="matrix(1.43619,0,0,1.43619,474.038,244.629)">
                <path d="M0,1.454C0,-9.361 7.952,-15.768 17.222,-15.768C20.585,-15.768 23.584,-14.814 25.72,-13.632L27.855,-15.995L28.4,-15.995L28.4,-3.59L27.674,-3.59C24.447,-10.542 21.721,-14.905 16.449,-14.905C11.451,-14.905 8.315,-9.27 8.315,0.363C8.315,10.315 12.587,15.541 18.403,15.541C23.084,15.541 26.265,13.496 28.582,8.406L29.445,8.815C27.492,13.268 23.72,17.449 15.814,17.449C5.862,17.449 0,11.451 0,1.454" style="fill:rgb(163,32,54);fill-rule:nonzero;"/>
            </g>
            <g transform="matrix(1.43619,0,0,1.43619,517.974,222.569)">
                <path d="M0,31.491C2.545,31.445 3.045,30.991 3.045,29.9L3.045,2.773C3.045,1.409 2.59,0.591 -0.182,0.546L-0.182,0L10.042,-0.545L10.042,15.178C11.951,12.497 14.995,10.725 17.903,10.725C21.947,10.725 23.72,13.133 23.72,17.495L23.72,29.9C23.72,30.991 24.174,31.445 26.809,31.491L26.809,32.036L14.45,32.036L14.45,31.491C16.04,31.445 16.722,30.991 16.722,29.9L16.722,17.541C16.722,15.178 15.722,13.769 13.678,13.769C12.268,13.769 11.179,14.678 10.042,16.087L10.042,29.9C10.042,30.991 10.724,31.445 12.314,31.491L12.314,32.036L0,32.036L0,31.491Z" style="fill:rgb(163,32,54);fill-rule:nonzero;"/>
            </g>
            <g transform="matrix(1.43619,0,0,1.43619,556.799,222.961)">
                <path d="M0,31.218C2.59,31.172 3.272,30.718 3.272,29.627L3.272,13.905C3.272,12.541 2.59,11.724 0,11.678L0,11.133L10.269,10.588L10.269,29.627C10.269,30.718 10.678,31.172 13.314,31.218L13.314,31.763L0,31.763L0,31.218ZM2.635,3.59C2.635,1.091 4.271,-0.545 6.68,-0.545C9.134,-0.545 10.724,1 10.724,3.408C10.724,5.908 9.134,7.498 6.68,7.498C4.271,7.498 2.635,6.089 2.635,3.59" style="fill:rgb(163,32,54);fill-rule:nonzero;"/>
            </g>
            <g transform="matrix(1.43619,0,0,1.43619,575.787,252.983)">
                <path d="M0,0.635C0,-6.499 4.907,-10.588 11.587,-10.588C18.085,-10.588 20.448,-7.771 20.448,-5.408C20.448,-3.227 19.176,-1.727 16.903,-1.727C14.359,-1.727 13.132,-3.363 13.132,-5.181C13.132,-6.68 14.041,-7.816 14.904,-8.225C14.495,-8.998 13.45,-9.77 11.814,-9.77C8.997,-9.77 7.406,-5.771 7.406,0.181C7.406,4.816 9.179,9.315 13.587,9.315C15.904,9.315 18.54,7.951 20.221,5.634L20.721,5.952C18.585,9.269 15.632,11.223 11.178,11.223C4.226,11.223 0,7.361 0,0.635" style="fill:rgb(163,32,54);fill-rule:nonzero;"/>
            </g>
            <g transform="matrix(1.43619,0,0,1.43619,607.565,253.373)">
                <path d="M0,0.091C0,-6.68 4.362,-10.86 11.314,-10.86C18.449,-10.86 22.584,-6.861 22.584,-0.091C22.584,6.726 18.221,10.951 11.314,10.951C4.09,10.951 0,6.907 0,0.091M15.177,-0C15.177,-6.134 14.177,-9.951 11.087,-9.951C8.043,-9.951 7.406,-6.134 7.406,-0C7.406,6.135 8.406,10.043 11.496,10.043C14.495,10.043 15.177,6.135 15.177,-0" style="fill:rgb(163,32,54);fill-rule:nonzero;"/>
            </g>
            <g transform="matrix(1.43619,0,0,1.43619,457.961,270.212)">
                <path d="M0,-21.54C3.272,-21.085 3.908,-19.994 2.5,-16.359L-1.545,-5.999L-6.907,-18.676C-7.635,-20.358 -7.315,-21.313 -4.59,-21.54L-4.59,-22.085L-20.155,-22.085L-20.155,-29.537L-24.925,-27.811L-24.925,-22.039L-29.151,-21.039L-29.151,-20.448L-24.925,-20.448L-24.925,-6.725C-24.925,-2.544 -23.017,-0.682 -19.473,-0.682C-16.609,-0.682 -14.61,-2.272 -13.156,-5.225L-13.701,-5.589C-14.883,-3.453 -16.201,-2.544 -17.518,-2.544C-19.382,-2.544 -20.155,-3.59 -20.155,-6.317L-20.155,-20.494L-14.391,-20.494C-13.305,-20.494 -12.991,-20.197 -12.871,-20.06C-12.493,-19.577 -12.15,-18.956 -11.77,-18.131L-3.817,-0.635L-4.089,0C-6.316,5.499 -8.043,6.77 -9.861,6.997C-9.27,6.498 -8.861,5.68 -8.861,4.726C-8.861,3.18 -9.998,1.999 -11.406,1.999C-13.132,1.999 -13.996,3.363 -13.996,4.771C-13.996,6.543 -12.633,7.997 -10.451,7.997C-7.862,7.997 -5.68,6.362 -3.272,0.545L4.181,-17.632C5.225,-20.04 6.635,-21.313 8.226,-21.54L8.226,-22.085L0,-22.085L0,-21.54Z" style="fill:rgb(118,119,123);fill-rule:nonzero;"/>
            </g>
        </g>
        <g transform="matrix(3.11514,0,0,3.11514,-431.978,-738.973)">
            <g transform="matrix(1,0,0,1,384.991,245.351)">
                <path d="M0,27.352L-8.331,27.352L-18.233,16.702L-18.233,10.619L-8.633,0L-0.06,0L-11.108,13.766L0,27.352Z" style="fill-rule:nonzero;"/>
            </g>
            <g transform="matrix(-1,0,0,1,780,-323.819)">
                <rect x="386.257" y="569.191" width="7.486" height="27.327"/>
            </g>
            <g transform="matrix(1,0,0,1,413.604,272.724)">
                <path d="M0,-27.353L-18.052,-27.353L-18.052,-21.184L-12.769,-21.184L-12.769,0L-5.283,0L-5.283,-21.184L0,-21.184L0,-27.353Z" style="fill-rule:nonzero;"/>
            </g>
            <g transform="matrix(1,0,0,1,364.964,272.697)">
                <path d="M0,-0.001L0.005,0.004L0,-0.005L0,-0.001Z" style="fill:rgb(0,134,206);fill-rule:nonzero;"/>
            </g>
            <g transform="matrix(1,0,0,1,364.964,272.694)">
                <path d="M0,0.004L0,0.002L-0.001,0L0,0.004Z" style="fill:rgb(0,134,206);fill-rule:nonzero;"/>
            </g>
            <g transform="matrix(1,0,0,1,343.597,272.703)">
                <path d="M0,-17.332C-1.433,-15.598 -2.654,-13.683 -3.63,-11.63L21.367,0L0,-17.332Z" style="fill:rgb(0,153,130);fill-rule:nonzero;"/>
            </g>
            <g transform="matrix(-0.425811,-0.904812,-0.904812,0.425811,363.776,247.163)">
                <path d="M-23.603,9.797L3.789,9.797C3.808,12.063 3.545,14.309 3.018,16.486L-23.612,9.799L-23.603,9.797Z" style="fill:rgb(0,153,130);fill-rule:nonzero;"/>
            </g>
            <g transform="matrix(0.447214,0.894427,0.894427,-0.447214,364.96,272.693)">
                <rect x="0" y="0.003" width="0.002" height="0.002" style="fill:rgb(0,134,206);"/>
            </g>
            <g transform="matrix(0.447214,0.894427,0.894427,-0.447214,364.96,272.693)">
                <rect x="0" y="0.003" width="0.002" height="0.002" style="fill:rgb(0,134,206);"/>
            </g>
            <g transform="matrix(1,0,0,1,338.178,272.704)">
                <path d="M0,-6.696C-0.549,-4.554 -0.844,-2.311 -0.855,0L26.778,0L0,-6.696Z" style="fill:rgb(0,153,130);fill-rule:nonzero;"/>
            </g>
            <g transform="matrix(1,0,0,1,364.965,245.392)">
                <path d="M0,27.306L0.013,0.005C-0.056,0.005 -0.124,0 -0.194,0C-2.419,0 -4.58,0.272 -6.652,0.772L-0.003,27.299L0,27.306Z" style="fill-rule:nonzero;"/>
            </g>
            <g transform="matrix(1,0,0,1,419.868,251.488)">
                <path d="M0,-6.123L0.877,-6.123L0.877,-3.43L3.492,-6.123L4.658,-6.123L1.781,-3.228L4.887,0L3.606,0L0.877,-3L0.877,0L0,0L0,-6.123Z" style="fill-rule:nonzero;"/>
            </g>
            <g transform="matrix(1,0,0,1,425.814,251.173)">
                <path d="M0,-3.843C0.412,-4.089 0.904,-4.264 1.474,-4.264C2.755,-4.264 3.272,-3.632 3.272,-2.413L3.272,-0.562C3.272,-0.053 3.289,0.183 3.307,0.315L2.535,0.315L2.535,-0.264L2.518,-0.264C2.325,0.008 1.886,0.421 1.132,0.421C0.167,0.421 -0.509,-0.001 -0.509,-0.974C-0.509,-2.097 0.719,-2.448 1.57,-2.448C1.895,-2.448 2.123,-2.448 2.448,-2.431C2.448,-3.203 2.167,-3.597 1.342,-3.597C0.877,-3.597 0.377,-3.422 0.044,-3.141L0,-3.843ZM2.448,-1.817C2.272,-1.817 2.097,-1.834 1.921,-1.834C1.474,-1.834 0.368,-1.764 0.368,-0.974C0.368,-0.501 0.824,-0.246 1.202,-0.246C2.018,-0.246 2.448,-0.755 2.448,-1.422L2.448,-1.817Z" style="fill-rule:nonzero;"/>
            </g>
            <g transform="matrix(1,0,0,1,430.488,251.383)">
                <path d="M0,-4.369L0.772,-4.369L0.772,-3.676L0.789,-3.676C1.009,-4.141 1.483,-4.474 1.956,-4.474C2.202,-4.474 2.325,-4.448 2.5,-4.413L2.5,-3.676C2.351,-3.738 2.184,-3.755 2.044,-3.755C1.307,-3.755 0.824,-3.053 0.824,-1.93L0.824,0.105L0,0.105L0,-4.369Z" style="fill-rule:nonzero;"/>
            </g>
            <g transform="matrix(1,0,0,1,0,-345.493)">
                <rect x="434.013" y="590.402" width="0.825" height="6.579"/>
            </g>
            <g transform="matrix(1,0,0,1,436.022,247.892)">
                <path d="M0,2.719C0.325,2.929 0.789,3.035 1.026,3.035C1.403,3.035 1.869,2.877 1.869,2.395C1.869,1.579 -0.07,1.649 -0.07,0.394C-0.07,-0.536 0.623,-0.983 1.509,-0.983C1.895,-0.983 2.211,-0.904 2.535,-0.808L2.465,-0.088C2.281,-0.202 1.79,-0.316 1.597,-0.316C1.175,-0.316 0.807,-0.141 0.807,0.228C0.807,1.14 2.746,0.877 2.746,2.307C2.746,3.263 1.983,3.702 1.184,3.702C0.763,3.702 0.333,3.658 -0.044,3.456L0,2.719Z" style="fill-rule:nonzero;"/>
            </g>
            <g transform="matrix(1,0,0,1,439.775,251.383)">
                <path d="M0,-4.369L0.772,-4.369L0.772,-3.676L0.789,-3.676C1.009,-4.141 1.483,-4.474 1.956,-4.474C2.202,-4.474 2.325,-4.448 2.5,-4.413L2.5,-3.676C2.351,-3.738 2.184,-3.755 2.044,-3.755C1.307,-3.755 0.825,-3.053 0.825,-1.93L0.825,0.105L0,0.105L0,-4.369Z" style="fill-rule:nonzero;"/>
            </g>
            <g transform="matrix(1,0,0,1,447.151,247.119)">
                <path d="M0,4.369L-0.798,4.369L-0.798,3.658L-0.816,3.658C-1.062,4.167 -1.658,4.474 -2.281,4.474C-3.439,4.474 -3.956,3.755 -3.956,2.553L-3.956,-0.105L-3.132,-0.105L-3.132,2.211C-3.132,3.255 -2.904,3.764 -2.184,3.808C-1.246,3.808 -0.825,3.053 -0.825,1.965L-0.825,-0.105L0,-0.105L0,4.369Z" style="fill-rule:nonzero;"/>
            </g>
            <g transform="matrix(1,0,0,1,448.562,251.488)">
                <path d="M0,-6.579L0.824,-6.579L0.824,-3.833L0.842,-3.833C1.14,-4.307 1.658,-4.579 2.281,-4.579C3.439,-4.579 3.956,-3.86 3.956,-2.658L3.956,0L3.131,0L3.131,-2.316C3.131,-3.36 2.903,-3.868 2.184,-3.912C1.245,-3.912 0.824,-3.158 0.824,-2.07L0.824,0L0,0L0,-6.579Z" style="fill-rule:nonzero;"/>
            </g>
            <g transform="matrix(1,0,0,1,457.359,247.199)">
                <path d="M0,4.105C-0.316,4.219 -0.676,4.395 -1.412,4.395C-3,4.395 -3.728,3.429 -3.728,1.973C-3.728,0.649 -2.895,-0.29 -1.632,-0.29C-0.14,-0.29 0.342,0.798 0.342,2.236L-2.851,2.236C-2.851,3.123 -2.158,3.728 -1.377,3.728C-0.833,3.728 -0.202,3.447 0,3.281L0,4.105ZM-0.535,1.622C-0.535,0.938 -0.939,0.377 -1.649,0.377C-2.456,0.377 -2.79,1.043 -2.851,1.622L-0.535,1.622Z" style="fill-rule:nonzero;"/>
            </g>
            <g transform="matrix(1,0,0,1,458.814,251.383)">
                <path d="M0,-4.369L0.772,-4.369L0.772,-3.676L0.789,-3.676C1.009,-4.141 1.483,-4.474 1.956,-4.474C2.202,-4.474 2.325,-4.448 2.5,-4.413L2.5,-3.676C2.351,-3.738 2.184,-3.755 2.044,-3.755C1.307,-3.755 0.825,-3.053 0.825,-1.93L0.825,0.105L0,0.105L0,-4.369Z" style="fill-rule:nonzero;"/>
            </g>
            <g transform="matrix(1,0,0,1,0,-323.834)">
                <rect x="419.825" y="579.8" width="0.877" height="6.124"/>
            </g>
            <g transform="matrix(1,0,0,1,422.271,261.985)">
                <path d="M0,-4.369L0.798,-4.369L0.798,-3.658L0.816,-3.658C1.061,-4.167 1.658,-4.474 2.281,-4.474C3.439,-4.474 3.956,-3.755 3.956,-2.553L3.956,0.105L3.132,0.105L3.132,-2.211C3.132,-3.255 2.904,-3.764 2.184,-3.808C1.245,-3.808 0.825,-3.053 0.825,-1.965L0.825,0.105L0,0.105L0,-4.369Z" style="fill-rule:nonzero;"/>
            </g>
            <g transform="matrix(1,0,0,1,427.384,258.494)">
                <path d="M0,2.719C0.325,2.929 0.789,3.035 1.026,3.035C1.403,3.035 1.869,2.877 1.869,2.395C1.869,1.579 -0.07,1.649 -0.07,0.394C-0.07,-0.535 0.623,-0.983 1.509,-0.983C1.895,-0.983 2.211,-0.904 2.535,-0.808L2.465,-0.088C2.281,-0.202 1.79,-0.316 1.596,-0.316C1.175,-0.316 0.807,-0.141 0.807,0.228C0.807,1.14 2.746,0.877 2.746,2.307C2.746,3.263 1.983,3.702 1.184,3.702C0.763,3.702 0.333,3.658 -0.044,3.456L0,2.719Z" style="fill-rule:nonzero;"/>
            </g>
            <g transform="matrix(1,0,0,1,433.593,260.231)">
                <path d="M0,-1.948L-1.184,-1.948L-1.184,0.499C-1.184,1.017 -0.868,1.298 -0.491,1.298C-0.237,1.298 -0.053,1.219 0.07,1.14L0.07,1.842C-0.114,1.894 -0.368,1.965 -0.631,1.965C-1.482,1.965 -2.009,1.561 -2.009,0.666L-2.009,-1.948L-3.018,-1.948L-3.018,-2.615L-2.009,-2.615L-2.009,-3.65L-1.184,-3.913L-1.184,-2.615L0,-2.615L0,-1.948Z" style="fill-rule:nonzero;"/>
            </g>
            <g transform="matrix(1,0,0,1,0,-324.114)">
                <path d="M434.767,580.73L435.698,580.73L435.698,579.8L434.767,579.8L434.767,580.73ZM434.821,586.204L435.645,586.204L435.645,581.73L434.821,581.73L434.821,586.204Z" style="fill-rule:nonzero;"/>
            </g>
            <g transform="matrix(1,0,0,1,439.618,260.231)">
                <path d="M0,-1.948L-1.184,-1.948L-1.184,0.499C-1.184,1.017 -0.868,1.298 -0.491,1.298C-0.237,1.298 -0.053,1.219 0.07,1.14L0.07,1.842C-0.114,1.894 -0.368,1.965 -0.631,1.965C-1.482,1.965 -2.009,1.561 -2.009,0.666L-2.009,-1.948L-3.018,-1.948L-3.018,-2.615L-2.009,-2.615L-2.009,-3.65L-1.184,-3.913L-1.184,-2.615L0,-2.615L0,-1.948Z" style="fill-rule:nonzero;"/>
            </g>
            <g transform="matrix(1,0,0,1,444.696,257.721)">
                <path d="M0,4.369L-0.798,4.369L-0.798,3.658L-0.816,3.658C-1.062,4.167 -1.658,4.474 -2.281,4.474C-3.439,4.474 -3.956,3.755 -3.956,2.553L-3.956,-0.105L-3.132,-0.105L-3.132,2.211C-3.132,3.255 -2.904,3.764 -2.185,3.808C-1.246,3.808 -0.825,3.053 -0.825,1.965L-0.825,-0.105L0,-0.105L0,4.369Z" style="fill-rule:nonzero;"/>
            </g>
            <g transform="matrix(1,0,0,1,448.563,260.231)">
                <path d="M0,-1.948L-1.184,-1.948L-1.184,0.499C-1.184,1.017 -0.868,1.298 -0.491,1.298C-0.237,1.298 -0.053,1.219 0.07,1.14L0.07,1.842C-0.114,1.894 -0.368,1.965 -0.631,1.965C-1.482,1.965 -2.009,1.561 -2.009,0.666L-2.009,-1.948L-3.018,-1.948L-3.018,-2.615L-2.009,-2.615L-2.009,-3.65L-1.184,-3.913L-1.184,-2.615L0,-2.615L0,-1.948Z" style="fill-rule:nonzero;"/>
            </g>
            <g transform="matrix(1,0,0,1,420.281,269.814)">
                <path d="M0,-0.929L-1.053,-0.929L-1.053,-1.596L0,-1.596L0,-2.008C0,-3.096 0.281,-3.807 1.5,-3.807C1.711,-3.807 1.886,-3.78 2.053,-3.754L2.017,-3.087C1.921,-3.122 1.763,-3.14 1.623,-3.14C0.912,-3.14 0.824,-2.684 0.824,-2.078L0.824,-1.596L2.009,-1.596L2.009,-0.929L0.824,-0.929L0.824,2.878L0,2.878L0,-0.929Z" style="fill-rule:nonzero;"/>
            </g>
            <g transform="matrix(1,0,0,1,427.113,266.762)">
                <path d="M0,5.93L-0.798,5.93L-0.798,5.219L-0.816,5.219C-1.062,5.728 -1.658,6.035 -2.281,6.035C-3.439,6.035 -3.956,5.316 -3.956,4.114L-3.956,1.456L-3.132,1.456L-3.132,3.772C-3.132,4.816 -2.904,5.325 -2.184,5.368C-1.246,5.368 -0.825,4.614 -0.825,3.526L-0.825,1.456L0,1.456L0,5.93ZM-3.106,-0.105L-2.281,-0.105L-2.281,0.772L-3.106,0.772L-3.106,-0.105ZM-1.667,-0.105L-0.843,-0.105L-0.843,0.772L-1.667,0.772L-1.667,-0.105Z" style="fill-rule:nonzero;"/>
            </g>
            <g transform="matrix(1,0,0,1,428.515,272.587)">
                <path d="M0,-4.369L0.772,-4.369L0.772,-3.676L0.789,-3.676C1.009,-4.141 1.483,-4.474 1.956,-4.474C2.202,-4.474 2.324,-4.448 2.5,-4.413L2.5,-3.676C2.351,-3.737 2.184,-3.755 2.044,-3.755C1.307,-3.755 0.824,-3.053 0.824,-1.93L0.824,0.105L0,0.105L0,-4.369Z" style="fill-rule:nonzero;"/>
            </g>
            <g transform="matrix(1,0,0,1,435.663,271.92)">
                <path d="M0,-4.579L-1.904,-4.579L-1.904,-5.351L2.781,-5.351L2.781,-4.579L0.877,-4.579L0.877,0.772L0,0.772L0,-4.579Z" style="fill-rule:nonzero;"/>
            </g>
            <g transform="matrix(1,0,0,1,442.021,268.403)">
                <path d="M0,4.105C-0.316,4.219 -0.676,4.395 -1.412,4.395C-3,4.395 -3.728,3.429 -3.728,1.973C-3.728,0.649 -2.895,-0.29 -1.632,-0.29C-0.14,-0.29 0.342,0.798 0.342,2.236L-2.851,2.236C-2.851,3.123 -2.158,3.728 -1.377,3.728C-0.833,3.728 -0.202,3.447 0,3.281L0,4.105ZM-0.535,1.623C-0.535,0.938 -0.939,0.377 -1.649,0.377C-2.456,0.377 -2.79,1.044 -2.851,1.623L-0.535,1.623Z" style="fill-rule:nonzero;"/>
            </g>
            <g transform="matrix(1,0,0,1,446.309,271.939)">
                <path d="M0,-2.966C-0.316,-3.098 -0.631,-3.159 -0.895,-3.159C-1.816,-3.159 -2.334,-2.334 -2.334,-1.483C-2.334,-0.685 -1.904,0.192 -0.842,0.192C-0.561,0.192 -0.211,0.105 0.044,-0.062L0.105,0.675C-0.237,0.832 -0.631,0.859 -0.93,0.859C-2.281,0.859 -3.211,-0.203 -3.211,-1.483C-3.211,-2.843 -2.298,-3.825 -0.93,-3.825C-0.596,-3.825 -0.167,-3.747 0.07,-3.65L0,-2.966Z" style="fill-rule:nonzero;"/>
            </g>
            <g transform="matrix(1,0,0,1,447.361,272.692)">
                <path d="M0,-6.579L0.825,-6.579L0.825,-3.833L0.842,-3.833C1.14,-4.307 1.658,-4.579 2.281,-4.579C3.439,-4.579 3.956,-3.86 3.956,-2.658L3.956,0L3.132,0L3.132,-2.315C3.132,-3.36 2.904,-3.868 2.184,-3.912C1.245,-3.912 0.825,-3.158 0.825,-2.07L0.825,0L0,0L0,-6.579Z" style="fill-rule:nonzero;"/>
            </g>
            <g transform="matrix(1,0,0,1,452.719,272.587)">
                <path d="M0,-4.369L0.798,-4.369L0.798,-3.658L0.816,-3.658C1.061,-4.167 1.658,-4.474 2.281,-4.474C3.439,-4.474 3.956,-3.755 3.956,-2.553L3.956,0.105L3.132,0.105L3.132,-2.211C3.132,-3.255 2.904,-3.764 2.184,-3.808C1.245,-3.808 0.825,-3.053 0.825,-1.965L0.825,0.105L0,0.105L0,-4.369Z" style="fill-rule:nonzero;"/>
            </g>
            <g transform="matrix(1,0,0,1,460.06,272.798)">
                <path d="M0,-4.685C1.36,-4.685 2.272,-3.703 2.272,-2.343C2.272,-1.062 1.343,0 0,0C-1.351,0 -2.281,-1.062 -2.281,-2.343C-2.281,-3.703 -1.368,-4.685 0,-4.685M0,-0.667C0.965,-0.667 1.395,-1.545 1.395,-2.343C1.395,-3.194 0.877,-4.018 0,-4.018C-0.886,-4.018 -1.403,-3.194 -1.403,-2.343C-1.403,-1.545 -0.974,-0.667 0,-0.667" style="fill-rule:nonzero;"/>
            </g>
            <g transform="matrix(1,0,0,1,0,-303.085)">
                <rect x="463.54" y="569.198" width="0.824" height="6.579"/>
            </g>
            <g transform="matrix(1,0,0,1,467.856,272.798)">
                <path d="M0,-4.685C1.36,-4.685 2.272,-3.703 2.272,-2.343C2.272,-1.062 1.342,0 0,0C-1.351,0 -2.281,-1.062 -2.281,-2.343C-2.281,-3.703 -1.368,-4.685 0,-4.685M0,-0.667C0.965,-0.667 1.395,-1.545 1.395,-2.343C1.395,-3.194 0.877,-4.018 0,-4.018C-0.886,-4.018 -1.403,-3.194 -1.403,-2.343C-1.403,-1.545 -0.974,-0.667 0,-0.667" style="fill-rule:nonzero;"/>
            </g>
            <g transform="matrix(1,0,0,1,475.188,270.253)">
                <path d="M0,2.246C0,3.606 -0.702,4.386 -2.307,4.386C-2.781,4.386 -3.193,4.325 -3.913,4.08L-3.825,3.316C-3.193,3.606 -2.816,3.72 -2.211,3.72C-1.342,3.72 -0.825,3.132 -0.825,2.185L-0.825,1.746L-0.842,1.746C-1.193,2.211 -1.772,2.439 -2.342,2.439C-3.623,2.439 -4.255,1.395 -4.255,0.237C-4.255,-0.912 -3.605,-2.14 -2.254,-2.14C-1.465,-2.14 -1.027,-1.851 -0.781,-1.368L-0.763,-1.368L-0.763,-2.035L0,-2.035L0,2.246ZM-0.825,0.255C-0.825,-0.675 -1.255,-1.474 -2.132,-1.474C-2.965,-1.474 -3.377,-0.57 -3.377,0.193C-3.377,1.035 -2.904,1.772 -2.132,1.772C-1.36,1.772 -0.825,1.088 -0.825,0.255" style="fill-rule:nonzero;"/>
            </g>
            <g transform="matrix(1,0,0,1,0,-302.91)">
                <path d="M476.643,570.128L477.573,570.128L477.573,569.198L476.643,569.198L476.643,570.128ZM476.695,575.602L477.519,575.602L477.519,571.128L476.695,571.128L476.695,575.602Z" style="fill-rule:nonzero;"/>
            </g>
            <g transform="matrix(1,0,0,1,482.458,268.403)">
                <path d="M0,4.105C-0.316,4.219 -0.676,4.395 -1.412,4.395C-3,4.395 -3.728,3.429 -3.728,1.973C-3.728,0.649 -2.895,-0.29 -1.632,-0.29C-0.14,-0.29 0.342,0.798 0.342,2.236L-2.851,2.236C-2.851,3.123 -2.158,3.728 -1.377,3.728C-0.833,3.728 -0.202,3.447 0,3.281L0,4.105ZM-0.535,1.623C-0.535,0.938 -0.939,0.377 -1.649,0.377C-2.456,0.377 -2.79,1.044 -2.851,1.623L-0.535,1.623Z" style="fill-rule:nonzero;"/>
            </g>
        </g>
        <g transform="matrix(0.481762,0.481762,-0.481762,0.481762,387.389,-263.266)">
            <path d="M468.482,188.339L539.444,188.339" style="fill:none;stroke:black;stroke-width:1.47px;"/>
            <g transform="matrix(6.12323e-17,1,-1,6.12323e-17,692.302,-315.623)">
                <path d="M468.482,188.339L539.444,188.339" style="fill:none;stroke:black;stroke-width:1.47px;"/>
            </g>
        </g>
    </g>
</svg>
